<?xml version="1.0" encoding="UTF-8"?>
<svg id="_レイヤー_1" data-name="レイヤー_1" xmlns="http://www.w3.org/2000/svg" version="1.1" viewBox="230 330 136 182">
  <!-- Generator: Adobe Illustrator 29.8.3, SVG Export Plug-In . SVG Version: 2.1.1 Build 3)  -->
  <defs>
    <style>
      .st0 {
        fill: #040000;
      }
    </style>
  </defs>
  <path class="st0" d="M245.2,505.3c-2,0-3.1-1.2-3.1-3.3v-10.2h6.2v-5.6h-6.2v-6.1h-7.2v6.1h-3.9v5.6h3.9v10.3c0,5.9,3.4,9,9.3,9s4.4-.5,5.9-1.6l-2-5.1c-.8.6-1.9.9-2.9.9Z"/>
  <path class="st0" d="M264.9,485.3c-7.6,0-13.3,5.4-13.3,12.9s5.6,12.9,14.3,12.9,8-1.4,10.3-4l-3.9-4.2c-1.7,1.6-3.6,2.4-6.3,2.4-3.8,0-6.5-1.9-7.2-5h18.9c0-.6.1-1.4.1-2,0-8-5.7-13-13-13ZM258.7,496c.5-3.2,2.9-5.2,6.2-5.2s5.6,2,6.1,5.2h-12.3Z"/>
  <path class="st0" d="M326.6,491.5c-1.9-3.4-5.2-5.4-9.6-5.4-6.9,0-11.7,5.1-11.7,12.4s4.8,12.4,11.8,12.4,7.7-2,9.5-5.4v5.2h3.6v-24.4h-3.6v5.2ZM326.6,499.5c-.4,4.9-3.9,8.3-8.8,8.3s-8.9-3.9-8.9-9.2,3.7-9.3,8.9-9.3,8.4,3.4,8.8,8.4v1.9Z"/>
  <path class="st0" d="M352.3,486.1c-4.3,0-7.6,2-9.4,5.4v-15.3h-3.6v34.5h3.6v-5.2c1.8,3.4,5.2,5.4,9.5,5.4,6.9,0,11.7-5.1,11.7-12.3s-4.8-12.4-11.7-12.4ZM351.6,507.6c-5.2,0-8.8-3.8-8.8-9.2s3.6-9.2,8.8-9.2,8.7,3.9,8.7,9.2-3.6,9.2-8.7,9.2Z"/>
  <path class="st0" d="M339.1,404.1c0-.2,0-.4,0-.6.2-1.2.2-2,.2-2.1h-.2c.3-7.5,2.5-24.1,3.3-30.1.2-1.8.3-2.5.4-2.7.3-3.6-1.3-7.7-5-8.3-2.1-.3-3.8,0-5.2,1.1-2.1,1.7-2.4,4.4-2.5,4.9l-4.4,28.4c0,.3-.5,2.5-2.2,2.3-.7,0-1.1-.3-1.4-.6-.3-.4-.4-1.3-.2-2.5.4-2.4,5-43.5,5.2-45.2,0,0,0,0,0,0,0-.2.3-3.9-1.8-6.3-1.1-1.3-2.5-1.9-4.4-2.1-4.9-.3-6.9,4.3-7.3,6.8,0,0,0,0,0,0l-5,40.4s0,0,0,0c0,.5-.2,1.5-1.3,1.5-.8,0-1.1-.4-1.2-.5-.4-.5-.5-1.4-.4-1.7,0,0,0-.1,0-.2l-.4-48.4c0-.5,0-3.3-1.8-5.3-1.3-1.3-3.1-2-5.3-2-3.4,0-6,2.8-6.5,7-.4,3.5,0,46.8,0,48.6,0,.4-.1,1.2-.9,1.3-.5,0-1.2.1-1.3-1.4,0-.3,0-.5,0-.5h0c-.6-4.4-4.8-36.3-5-38-.3-2.5-2.2-7.1-7.4-6.6-2,.2-3.5,1-4.6,2.4-1.9,2.5-1.4,6-1.3,6.5.2,2.4,1.4,16.2,2,24.1h0c-.4,3.4-3,6.3-5.2,8.3-.7-.6-1.6-1-2.7-1.1-1.7-4.6-1.8-8.9-1.6-11.6,2.2-.3,3.9-2.1,3.9-4.4s-2-4.4-4.4-4.4-4.4,2-4.4,4.4.9,3,2.2,3.8c-.3,3.1-.3,7.9,1.6,13-.8.6-1.4,1.4-1.7,2.4-4.7.4-8.2-1.7-10.5-3.8.7-.8,1.1-1.8,1.1-2.9,0-2.5-2-4.4-4.4-4.4s-4.4,2-4.4,4.4,2,4.4,4.4,4.4.5,0,.8,0c2.5,2.4,6.5,5.2,12,5.2s.8,0,1.2,0c.5,1.3,1.7,2.3,3.1,2.6.4,4.2.4,8.1.2,11.5-4-6.2-7-8.4-11.8-9.5-2.4-.6-5.8-.4-9,.5-2.1.6-5.9,1.9-7.1,4.4-.5,1.1-.9,3.4,2.5,5.8,8.7,6.1,16.2,22.4,16.3,22.6,5.3,10.8,14.5,25.6,28.2,34.7,2.7,1.8,5.1,3,7.2,3.9l-6.1,46.5h18v-3.4h-14.3l5.9-41.7c2.4.8,3.8,1,3.9,1,0,0,.1,0,.2,0,.7,0,1.3-.5,1.4-1.2.2-.7-.3-1.5-1-1.7-12.2-3.7-20.4-9.7-24.5-17.9-5.5-11.2-1.4-22.9-.9-24.2.2-.5.4-1.3.7-2.1.4.4.8.7,1.1,1.1.8.7,1.6,1.4,2.4,2.1,3,2.6,5.4,4.7,6.9,7.7.8,1.6,1.3,4.4,1.8,7.4.8,4.2,1.5,8.5,3.3,11.2,2.6,3.8,8.1,10.5,15.3,11.7,7.8,1.4,15.4-1.7,19.5-5.4,4-3.6,8.6-8.6,12-18.7,3.4-10.1,3.6-26.5,3.1-32.4ZM291.1,390.8c2.7-.3,3.6-2.7,3.5-4.2-.1-12.5-.3-45.4,0-48.2.3-2.7,1.7-4.4,3.6-4.4,1.4,0,2.4.3,3.1,1,1.2,1.2,1.1,3.2,1.1,3.2,0,0,0,0,0,.1l.4,48.4c0,.5,0,2.4,1.1,3.8.5.6,1.5,1.4,3.2,1.5,3,.2,4.2-2.4,4.3-4.1l5-40.3c0-.4.9-4.6,4.2-4.4,1,0,1.8.4,2.3,1.1,1.3,1.5,1.2,4,1.1,4.2-1.7,14.8-4.9,43.1-5.2,45-.4,2-.1,3.6.7,4.7.7,1,1.9,1.6,3.4,1.8,3.6.4,5.1-2.9,5.4-4.7l4.4-28.4s0,0,0-.1c0,0,.2-1.9,1.4-2.9.7-.6,1.7-.7,2.9-.5,1.8.3,2.7,2.9,2.5,5.2,0,.2-.2,1.3-.3,2.6-1.5,11.3-3.4,26.6-3.4,32.3-.4,2.1-1.2,5.7-3.1,9.8-2.9,6.1-7.1,11.1-12.5,15-.8-.6-1.7-1-2.8-1-2.5,0-4.4,2-4.4,4.4s0,.4,0,.6l-17,3.5v-21.9h11.2c.6,1.7,2.3,2.8,4.1,2.8s4.4-2,4.4-4.4-2-4.4-4.4-4.4-3.1.9-3.8,2.2c-6.7-2.2-11.8-6.5-15.1-12.8-1.2-2.2-2-4.4-2.5-6.3.2,0,.5,0,.8,0ZM296.5,406.5c1.7,1.6,3.8,3.1,6.2,4.3h-6.2v-4.3ZM249.1,394.9c.9,0,1.8,0,2.5.3,4.4,1,7,3,12,11.5-.3,2.4-.7,4.4-1.1,6.1-1.3-4.9-3.8-8.7-7.3-11.3-5.3-4.1-11.6-4.4-15-4.3,2-1.3,5.8-2.2,8.9-2.2ZM270.2,420.6c-.8,2.1-4.2,12.5-.3,23.4-4.1-5.1-8.3-11.5-12.4-19.7-.3-.7-7.9-17.1-17.3-23.7-.2-.2-.5-.4-.7-.6,2.7-.2,8.9-.1,13.8,3.7,3.3,2.5,5.5,6.3,6.6,11.2-1.2.8-2,2.1-2,3.7,0,2.5,2,4.4,4.4,4.4s4.4-2,4.4-4.4-.8-2.9-2-3.7c.3-1.2.6-2.6.9-4.1,0,0,0,0,0,0,0,0,0,.1.1.2.1.2,2.4,3.1,5.2,6.1-.4,1.5-.7,2.7-1,3.5ZM272,413.6c-1.8-2.1-3.3-3.9-3.6-4.3-.6-1.2-1.2-2.3-1.8-3.3.5-4.4.7-9.9.2-16,1.5-.7,2.6-2.2,2.6-4s0-.5,0-.8c1.3-1.1,2.8-2.5,4.1-4.3,0,1,.2,2.5.4,4.7.4,4.1,1,9.8.8,12.6-.2,2-1.4,9.4-2.6,15.4ZM333.3,435.6c-3.2,9.5-7.4,14.2-11.2,17.5-3.6,3.2-10.3,5.9-17.1,4.7-6.2-1.1-11.1-7.1-13.5-10.5-1.4-2.1-2.2-6.3-2.9-10-.6-3.2-1.1-6.1-2-8.1-1.7-3.6-4.4-6-7.6-8.7-.8-.7-1.5-1.3-2.3-2-.8-.7-1.5-1.4-2.3-2.2,1.4-6.4,2.9-15.5,3.1-17.8.3-3.1-.3-8.7-.8-13.2-.2-2.4-.5-4.8-.5-5.4.2-2-2.2-28.8-2.3-29.9,0,0,0,0,0-.1-.1-.7-.2-3,.8-4.3.6-.7,1.4-1.1,2.5-1.3,3.6-.4,4.2,3.6,4.2,4,0,0,0,0,0,0,0,.4,4.6,34.7,5.1,38.1.1,1.3.8,6.3,3.7,11.8.9,1.6,2,3.4,3.4,5.2v7.4h-8.6v2.9h8.6v23.6c0,.4.2.9.5,1.1.3.2.6.3.9.3s.2,0,.3,0l19.1-3.9c.1,0,.2,0,.3-.1,0,0,0,0,.1,0,.8.7,1.8,1.2,3,1.2,2.5,0,4.4-2,4.4-4.4s0-.7-.1-1c7.3-5.2,11.4-11.5,13.6-16.4.2-.4.4-.9.6-1.3-.2,7.1-1,16.3-3.1,22.8Z"/>
</svg>